# xmcd CD database file
# Copyright (C) 1993-1998 Ti Kan
#
# Track frame offsets:
#	150
#	12050
#	25905
#	39062
#	53077
#	67720
#	79565
#	92682
#	104247
#	115735
#	129155
#	141242
#	151827
#	162410
#	176332
#	204722
#	215337
#	227260
#	238172
#	251620
#	262602
#	273377
#	284377
#	295092
#
# Disc length: 4322 seconds
#
# Revision: 2
# Processed by: cddbd v1.4b41PL1 Copyright (c) Steve Scherf et al.
# Submitted via: xmcd 2.3 PL0
#
DISCID=3810e018
DTITLE=Freddy King - Just Pickin' (Let's Hide Away And Dance Away With 
DTITLE=Freddy King and Freddy King Gives You A Bonanza Of Instrumentals)
DYEAR=1900
DGENRE=
TTITLE0=Hide Away
TTITLE1=Butterscotch
TTITLE2=Sen-Sa-Shun
TTITLE3=Side Tracked
TTITLE4=The Stumble
TTITLE5=Wash Out
TTITLE6=San-Ho-Zay
TTITLE7=Just Pickin'
TTITLE8=Heads Up
TTITLE9=In The Open
TTITLE10=Out Front
TTITLE11=Swooshy
TTITLE12=Manhole
TTITLE13=Freeway 75
TTITLE14=Low Tide
TTITLE15=The Sad Nite Owl
TTITLE16=Funnybone
TTITLE17=Nickleplated
TTITLE18=King-A-Ling
TTITLE19=Surf Monkey
TTITLE20=Freddy's Midnite Dream
TTITLE21=Fish Fare
TTITLE22=Cloud Sailin'
TTITLE23=Remington Ride
EXTD=
EXTT0=
EXTT1=
EXTT2=
EXTT3=
EXTT4=
EXTT5=
EXTT6=
EXTT7=
EXTT8=
EXTT9=
EXTT10=
EXTT11=
EXTT12=
EXTT13=
EXTT14=
EXTT15=
EXTT16=
EXTT17=
EXTT18=
EXTT19=
EXTT20=
EXTT21=
EXTT22=
EXTT23=
PLAYORDER=
